<!DOCTYPE svg PUBLIC "-//W3C//DTD SVG 1.1//EN" "http://www.w3.org/Graphics/SVG/1.1/DTD/svg11.dtd">
<svg xmlns="http://www.w3.org/2000/svg" viewBox="0 0 512 512">
<path d="M179.341 1.04c-36.844 6.554-54.532 48.998-33.08 79.38 2.717 3.849 2.734 3.958.9 6-1.028 1.144-16.391 19.405-34.141 40.58-40.312 48.09-35.13 42.801-39.745 40.566-19.035-9.222-43.126-4.872-58.284 10.524-31.323 31.813-8.654 85.828 36.049 85.898 41.012.065 65.148-45.785 41.894-79.583l-2.848-4.141 35.707-42.576c19.639-23.417 36.157-42.402 36.707-42.189.55.213 3.924 1.601 7.497 3.084 15.611 6.478 37.084 3.187 49.323-7.559l3.395-2.981 28.03 21.013 28.03 21.013-2.517 7.216c-13.942 39.952 25.978 78.86 65.742 64.076 24.71-9.187 39.312-39.213 30.656-63.041l-1.518-4.18 25.614-15.988 25.613-15.987 5.068 4.45c32.577 28.614 84.081 4.927 83.962-38.615-.103-37.521-38.894-61.469-73.232-45.21-21.522 10.19-33.756 39.041-25.819 60.89l1.518 4.18-25.621 15.992-25.62 15.992-4.642-4.172c-17.793-15.994-47.168-17.005-64.731-2.227-1.67 1.405-3.543 2.555-4.162 2.555-.955 0-51.149-37-54.863-40.442-1.03-.955-.9-2.039.677-5.62 7.014-15.937 3.235-38.092-8.889-52.116C215.04 5.13 195.614-1.855 179.341 1.04M177.3 18.862c-33.845 11.694-30.062 60.443 5.119 65.96 19.512 3.06 37.524-11.076 39.318-30.857 2.159-23.813-21.963-42.868-44.437-35.103m275.434 16.226c-20.99 4.945-32.168 29.373-22.306 48.75 12.765 25.082 49.276 24.285 61.265-1.338 11.918-25.472-11.438-53.896-38.959-47.412m-133.863 84.957c-19.243 3.136-32.273 22.351-27.863 41.088 7.34 31.19 49.584 36.101 63.864 7.423 12.053-24.205-9.224-52.874-36.001-48.511M43.746 180.024c-21.248 5.355-32.383 27.799-23.461 47.287 16.326 35.661 69.593 20.032 64.616-18.958-2.398-18.782-22.937-32.919-41.155-28.329M424.5 233.383c-6.009 2.841-9.684 6.574-12.419 12.617-2.016 4.452-2.037 5.854-2.027 132.5.01 138.226-.309 130.312 5.343 132.461 4.172 1.586 88.38 1.379 91.523-.226 1.33-.679 3.291-2.801 4.357-4.715 1.902-3.414 1.923-5.842 1.081-129.5L511.5 250.5l-2.775-5.65c-1.526-3.108-4.338-6.843-6.25-8.301-7.135-5.442-7.945-5.55-41.693-5.539-30.8.009-31.359.046-36.282 2.373m8 14.562c-1.1.451-2.9 1.819-4 3.042-1.974 2.193-2.004 3.821-2.266 123.118L425.969 495H495V374.434c0-84.452-.324-121.17-1.08-122.584-2.299-4.295-6.228-4.854-33.638-4.787-14.18.035-26.682.432-27.782.882m-281 2.411c-6.021 2.879-9.69 6.615-12.419 12.644-3.176 7.015-3.257 242.361-.085 245.765 3.009 3.23 5.119 3.354 51.727 3.033l43.223-.298 2.277-2.278 2.277-2.278V387.222c0-134.734.607-123.961-7.444-132.012-6.779-6.779-6.197-6.682-42.056-6.977-32.472-.267-32.504-.266-37.5 2.123m8 14.589c-1.1.451-2.9 1.819-4 3.042-1.972 2.191-2.004 3.822-2.267 114.618L152.966 495H222V382.934c0-78.363-.325-112.673-1.08-114.084-2.299-4.295-6.228-4.854-33.638-4.787-14.18.035-26.682.432-27.782.882m129 36.408c-5.9 2.753-11.711 8.836-13.629 14.266-1.124 3.181-1.371 20.778-1.371 97.603v93.722l2.277 2.278 2.277 2.278 43.223.298c46.608.321 48.718.197 51.727-3.033 1.965-2.109 1.996-3.586 1.996-96.257v-94.115l-2.59-5.198c-6.445-12.933-10.797-14.198-48.838-14.185-29.398.009-30.184.062-35.072 2.343m3.952 17.293L290 321.292V495h69.043l-.272-86.92-.271-86.92-2.424-2.58-2.425-2.58h-58.746l-2.453 2.646M17.183 368.868C10.958 371.057 5.509 375.876 2.9 381.5c-3.085 6.648-2.895 125.289.204 128.095 1.989 1.801 4.456 1.921 45.25 2.203 46.528.321 48.642.196 51.65-3.033 2.755-2.956 3.149-117.026.432-125-1.828-5.362-6.822-10.859-12.742-14.023-6.059-3.239-61.822-3.929-70.511-.874m3.73 16.414C17.091 388.217 17 389.551 17 442.934V495h69v-51.032c0-54.364-.166-56.381-4.85-58.888-2.992-1.601-58.129-1.416-60.237.202" fill-rule="evenodd"/>
</svg>