<!DOCTYPE svg PUBLIC "-//W3C//DTD SVG 1.1//EN" "http://www.w3.org/Graphics/SVG/1.1/DTD/svg11.dtd">
<svg xmlns="http://www.w3.org/2000/svg" viewBox="0 0 512 512">
<path d="M219.467 1.998c-5.381 2.664-6.779 5.352-10.419 20.041-4.167 16.818-3.832 16.252-11.199 18.919-3.492 1.264-8.521 3.391-11.176 4.726l-4.828 2.428-13.617-8.056c-14.632-8.657-19.012-9.816-25.028-6.623-3.245 1.723-47.517 46.136-49.094 49.251-2.826 5.581-1.501 10.26 6.95 24.544l8.056 13.617-2.428 4.828c-1.335 2.655-3.462 7.684-4.726 11.176-2.667 7.367-2.101 7.032-18.919 11.199C60.228 153.701 61 152.061 61 194.848c0 42.746-.553 41.57 22.163 47.156 16.798 4.132 16.107 3.721 18.815 11.201 1.253 3.462 3.371 8.467 4.706 11.122l2.428 4.828-8.056 13.617c-8.451 14.284-9.776 18.963-6.95 24.544 1.577 3.115 45.849 47.528 49.094 49.251 1.486.788 3.848 1.433 5.25 1.433H151l-.008 25.25-.009 25.25-22.489 12.346-22.489 12.346-4.647-3.078c-38.271-25.35-84.917 14.904-65.457 56.488 12.764 27.276 50.116 33.512 71.664 11.963 8.854-8.853 14.409-23.493 13.116-34.565l-.525-4.5 26.947-14.949c14.821-8.222 27.885-15.823 29.032-16.892 4.673-4.353 4.865-6.217 4.865-47.127 0-21.193.24-38.532.533-38.532.294 0 2.656 1.067 5.25 2.372 2.594 1.304 7.574 3.406 11.066 4.67 7.367 2.667 7.032 2.101 11.199 18.919 4.836 19.516 7.5 22.039 23.268 22.039H241v34.658l-5.214 2.421c-16.244 7.543-26.994 28.379-23.992 46.499 6.022 36.337 49.939 50.82 75.771 24.987 21.228-21.227 15.205-59.154-11.351-71.486L271 424.658V390h8.532c15.722 0 18.717-2.828 23.472-22.163 4.132-16.798 3.721-16.107 11.201-18.815 3.462-1.253 8.418-3.346 11.012-4.65 2.594-1.305 4.956-2.372 5.25-2.372.293 0 .533 17.339.533 38.532 0 40.83.199 42.781 4.81 47.077 1.117 1.04 14.183 8.636 29.035 16.879l27.004 14.988-.528 4.512c-1.296 11.08 4.255 25.719 13.114 34.577 21.548 21.549 58.9 15.313 71.664-11.963 19.462-41.59-27.186-81.838-65.464-56.483l-4.655 3.083-22.463-12.351-22.463-12.351-.027-25.25L361 358h2.55c1.402 0 3.764-.645 5.25-1.433 3.245-1.723 47.517-46.136 49.094-49.251 2.826-5.581 1.501-10.26-6.95-24.544l-8.056-13.617 2.428-4.828c1.335-2.655 3.462-7.684 4.726-11.176 2.667-7.367 2.101-7.032 18.919-11.199C451.782 236.297 451 237.962 451 195c0-42.962.782-41.297-22.039-46.952-16.818-4.167-16.252-3.832-18.919-11.199-1.264-3.492-3.391-8.521-4.726-11.176l-2.428-4.828 8.056-13.617c8.451-14.284 9.776-18.963 6.95-24.544-1.577-3.115-45.849-47.528-49.094-49.251-5.806-3.081-10.676-1.959-22.421 5.167-16.975 10.299-15.583 9.834-21.12 7.049-2.618-1.316-7.616-3.427-11.108-4.691-7.367-2.667-7.032-2.101-11.199-18.919C297.296-.786 298.973 0 255.934.001c-30.399.001-32.687.126-36.467 1.997m14.627 41.566c-4.292 17.477-4.891 18.203-18.871 22.862C209.325 68.391 200 72.249 194.5 75c-14.095 7.048-14.557 6.987-33.356-4.413l-8.876-5.382-13.046 13.147L126.177 91.5l2.345 3.621C135.765 106.309 141 116.663 141 119.802c0 2.048-2.128 7.794-5.387 14.542-2.962 6.136-6.82 15.531-8.573 20.879-4.211 12.849-5.189 13.626-22.476 17.871L91 176.425v37.15l13.564 3.331c17.287 4.245 18.265 5.022 22.476 17.871 1.753 5.348 5.611 14.743 8.573 20.879 7.405 15.335 7.403 15.353-4.026 34.2l-5.382 8.876 13.147 13.046 13.148 13.045 3.621-2.345c11.47-7.425 21.526-12.478 24.837-12.478 2.251 0 7.188 1.823 13.542 5 5.5 2.751 14.825 6.609 20.723 8.574 13.98 4.659 14.579 5.385 18.871 22.862L237.425 360h37.15l3.331-13.564c4.245-17.287 5.022-18.265 17.871-22.476 5.348-1.753 14.743-5.611 20.879-8.573 6.748-3.259 12.494-5.387 14.542-5.387 3.139 0 13.493 5.235 24.681 12.478l3.621 2.345 13.148-13.045 13.147-13.046-5.382-8.876c-11.429-18.847-11.431-18.865-4.026-34.2 2.962-6.136 6.82-15.531 8.573-20.879 4.211-12.849 5.189-13.626 22.476-17.871L421 213.575v-37.15l-13.564-3.331c-17.287-4.245-18.265-5.022-22.476-17.871-1.753-5.348-5.662-14.849-8.688-21.113-7.06-14.62-6.983-15.591 2.483-31.23l7.033-11.619-13.144-13.042L359.5 65.177l-3.621 2.345c-21.359 13.828-24.586 14.531-36.97 8.051-4.652-2.434-13.967-6.315-20.699-8.623-15.655-5.367-15.968-5.729-20.304-23.386L274.575 30h-37.15l-3.331 13.564m6.471 68.048c-43.131 7.787-74.203 49.868-68.743 93.101 9.038 71.56 95.685 100.486 145.334 48.519 56.406-59.04 3.887-156.149-76.591-141.62m2.707 29.825c-34.389 8.333-52.383 47.774-36.027 78.97 17.225 32.854 61.111 39.487 87.355 13.204 38.827-38.885 1.962-105.087-51.328-92.174M69.218 453.606c-13.119 6.693-9.44 26.488 5.232 28.141 14.977 1.688 22.578-18.183 10.299-26.926-3.975-2.83-11.249-3.399-15.531-1.215m180 0c-13.119 6.693-9.44 26.488 5.232 28.141 14.977 1.688 22.578-18.183 10.299-26.926-3.975-2.83-11.249-3.399-15.531-1.215m180 0c-13.119 6.693-9.44 26.488 5.232 28.141 14.977 1.688 22.578-18.183 10.299-26.926-3.975-2.83-11.249-3.399-15.531-1.215" fill-rule="evenodd"/>
</svg>