<!DOCTYPE svg PUBLIC "-//W3C//DTD SVG 1.1//EN" "http://www.w3.org/Graphics/SVG/1.1/DTD/svg11.dtd">
<svg xmlns="http://www.w3.org/2000/svg" viewBox="0 0 512 512">
<path d="M95.315.994C64.381 5.6 39.577 27.205 29.865 58L27.5 65.5v381l2.365 7.5c8.545 27.094 27.842 46.4 54.635 54.658l9 2.774 43.162.034 43.162.034 4.338-3.013c11.648-8.092 11.65-24.876.004-32.974l-4.334-3.013-41.166-.513c-39.679-.495-41.365-.594-46.666-2.748-13.594-5.523-22.902-17.594-25.057-32.497-1.188-8.217-1.188-353.267 0-361.484 2.308-15.957 12.91-28.661 27.742-33.242 10.228-3.16 259.402-3.16 269.63 0 14.832 4.581 25.434 17.285 27.742 33.242.497 3.433.912 34.722.923 69.532.019 60.822.096 63.439 1.976 67.124 7.407 14.518 28.665 14.239 35.169-.463 1.884-4.26 1.94-6.835 1.655-75.681l-.296-71.27-2.342-7C420.068 30.377 401.16 11.624 374.5 3.308l-9-2.807L233 .361C160.125.284 98.167.569 95.315.994m24.34 120.455c-17.437 6.259-16.511 32.743 1.313 37.542 2.61.703 38.851.957 110.869.777l106.991-.268 4.336-3.013c11.647-8.095 11.647-24.879 0-32.974l-4.336-3.013-107.664-.215c-89.423-.179-108.315.018-111.509 1.164m0 80c-17.437 6.259-16.511 32.743 1.313 37.542 2.61.703 38.851.957 110.869.777l106.991-.268 4.336-3.013c11.647-8.095 11.647-24.879 0-32.974l-4.336-3.013-107.664-.215c-89.423-.179-108.315.018-111.509 1.164M417.5 272.634c-20.379 3.136-20.27 3.049-86.33 68.805-32.081 31.933-59.363 59.861-60.626 62.061-3.486 6.07-26.544 83.328-26.544 88.936 0 11.552 10.916 21.059 21.909 19.081 5.67-1.02 82.646-22.428 86.302-24.002 5.358-2.306 119.813-116.679 124.104-124.015 20.185-34.509 3.537-77.678-34.283-88.899-5.666-1.681-19.291-2.774-24.532-1.967m-297.845 8.825c-17.333 6.18-16.54 32.591 1.126 37.497 2.381.661 26.918 1.033 68.219 1.033 67.937 0 69.606-.104 75.013-4.653 11.853-9.974 7.84-30.228-6.794-34.292-6.112-1.697-132.71-1.316-137.564.415m298.587 32.035c-4.296 1.867-10.242 6.446-10.242 7.888 0 .63 6.201 7.334 13.78 14.899l13.78 13.753 3.846-3.938c14.882-15.241-1.84-41-21.164-32.602m-76.498 73.262-36.746 36.756-5.941 19.469c-3.267 10.708-5.799 19.61-5.626 19.783.173.173 9.249-2.169 20.17-5.204l19.855-5.519 37.014-37.015 37.015-37.014-13.979-14.006C385.817 356.303 379.293 350 379.008 350c-.285 0-17.054 16.54-37.264 36.756" fill-rule="evenodd"/>
</svg>